<svg xmlns="http://www.w3.org/2000/svg">
  <symbol fill="currentColor" viewBox="0 0 30 30" id="buy">
    <path d="M26.406 11.622H19.76V8.176c0-2.64-2.145-4.801-4.785-4.801s-4.785 2.16-4.785 4.801v3.446H3.35a1.5 1.5 0 00-1.286 2.272L7.85 26.625H21.8l5.892-12.731c.136-.225.258-.49.258-.772 0-.828-.715-1.5-1.544-1.5zm-21.556 3h5.25l.577 3.751H6.618zm4.5 9.753l-1.8-3.751h3.473l.577 3.75zm6.75 0h-2.4l-.6-3.751h3.6zm.9-6.002h-4.05l-.6-3.75h5.1zm.51-6.751H12.44l-.003-3.446a2.537 2.537 0 115.073 0zm2.94 12.753h-2.26l.61-3.751h3.45zm2.731-6.002H19.08l.471-3.75h5.255z"/>
  </symbol>
</svg>
